<?xml version="1.0" encoding="UTF-8" standalone="no"?>
<!-- Generated by Microsoft Visio 11.0, SVG Export, v1.0 affordable.svg Page-1 -->

<svg
   xmlns:v="http://schemas.microsoft.com/visio/2003/SVGExtensions/"
   xmlns:dc="http://purl.org/dc/elements/1.1/"
   xmlns:cc="http://creativecommons.org/ns#"
   xmlns:rdf="http://www.w3.org/1999/02/22-rdf-syntax-ns#"
   xmlns:svg="http://www.w3.org/2000/svg"
   xmlns="http://www.w3.org/2000/svg"
   xmlns:sodipodi="http://sodipodi.sourceforge.net/DTD/sodipodi-0.dtd"
   xmlns:inkscape="http://www.inkscape.org/namespaces/inkscape"
   width="30"
   height="30"
   viewBox="0 0 22.5 22.5"
   xml:space="preserve"
   class="st3"
   version="1.1"
   id="svg18"
   sodipodi:docname="affordable.svg"
   style="font-size:12px;overflow:visible;color-interpolation-filters:sRGB;fill:none;fill-rule:evenodd;stroke-linecap:square;stroke-miterlimit:3"
   inkscape:version="0.92.3 (2405546, 2018-03-11)"><metadata
   id="metadata24"><rdf:RDF><cc:Work
       rdf:about=""><dc:format>image/svg+xml</dc:format><dc:type
         rdf:resource="http://purl.org/dc/dcmitype/StillImage" /><dc:title></dc:title></cc:Work></rdf:RDF></metadata><defs
   id="defs22" /><sodipodi:namedview
   pagecolor="#ffffff"
   bordercolor="#666666"
   borderopacity="1"
   objecttolerance="10"
   gridtolerance="10"
   guidetolerance="10"
   inkscape:pageopacity="0"
   inkscape:pageshadow="2"
   inkscape:window-width="1438"
   inkscape:window-height="852"
   id="namedview20"
   showgrid="false"
   units="px"
   inkscape:zoom="14.30303"
   inkscape:cx="12.42895"
   inkscape:cy="9.0276365"
   inkscape:window-x="2423"
   inkscape:window-y="13"
   inkscape:window-maximized="0"
   inkscape:current-layer="svg18" />
	<v:documentProperties
   v:langID="1033"
   v:viewMarkup="false" />

	<style
   type="text/css"
   id="style2">
	<![CDATA[
		.st1 {fill:none;stroke:#404040;stroke-linecap:round;stroke-linejoin:round;stroke-width:3.12}
		.st2 {fill:#404040;stroke:#404040;stroke-linecap:round;stroke-linejoin:round;stroke-width:1.2}
		.st3 {fill:none;fill-rule:evenodd;font-size:12;overflow:visible;stroke-linecap:square;stroke-miterlimit:3}
	]]>
	</style>

	<g
   v:mID="0"
   v:index="1"
   v:groupContext="foregroundPage"
   id="g16"
   transform="matrix(0.29203861,0,0,0.29203861,-78.144266,-104.1268)">
		<title
   id="title4">Page-1</title>
		<v:pageProperties
   v:drawingScale="1"
   v:pageScale="1"
   v:drawingUnits="19"
   v:shadowOffsetX="9"
   v:shadowOffsetY="-9" />
		<g
   id="shape1-1"
   v:mID="1"
   v:groupContext="shape"
   transform="translate(270,-360.563)">
			<title
   id="title6">Sheet.1</title>
			<circle
   cx="36"
   cy="756"
   class="st1"
   id="ellipse8"
   r="36"
   style="fill:none;stroke:#404040;stroke-width:3.11999989;stroke-linecap:round;stroke-linejoin:round" />
		</g>
		<g
   id="shape2-3"
   v:mID="2"
   v:groupContext="shape"
   transform="translate(282.375,-368.082)">
			<title
   id="title11">Sheet.2</title>
			<path
   style="fill:#404040;stroke:#404040;stroke-width:0.46726179;stroke-linecap:round;stroke-linejoin:round"
   d="M 8.8242188 4.9277344 L 8.8242188 16.291016 L 5.7597656 16.291016 L 14.957031 26.232422 L 24.158203 16.291016 L 21.089844 16.291016 L 21.089844 4.9277344 L 14.957031 4.9277344 L 8.8242188 4.9277344 z M 15.191406 6.7851562 L 16.566406 6.7851562 L 16.324219 8.4492188 C 16.60026 8.4752604 16.871094 8.5091146 17.136719 8.5507812 C 17.407552 8.5924479 17.665365 8.6419271 17.910156 8.6992188 L 17.910156 10.378906 C 17.628906 10.290365 17.329427 10.21224 17.011719 10.144531 C 16.699219 10.076823 16.389323 10.027344 16.082031 9.9960938 L 15.714844 12.542969 C 16.063802 12.667969 16.41276 12.80599 16.761719 12.957031 C 17.115885 13.102865 17.433594 13.285156 17.714844 13.503906 C 18.001302 13.722656 18.233073 13.988281 18.410156 14.300781 C 18.58724 14.608073 18.675781 14.983073 18.675781 15.425781 C 18.675781 15.93099 18.576823 16.373698 18.378906 16.753906 C 18.186198 17.128906 17.917969 17.446615 17.574219 17.707031 C 17.230469 17.96224 16.824219 18.160156 16.355469 18.300781 C 15.886719 18.441406 15.376302 18.527344 14.824219 18.558594 L 14.535156 20.511719 L 13.160156 20.511719 L 13.441406 18.542969 C 12.71224 18.496094 12.003906 18.378906 11.316406 18.191406 L 11.316406 16.363281 C 11.686198 16.483073 12.074219 16.595052 12.480469 16.699219 C 12.891927 16.798177 13.292969 16.86849 13.683594 16.910156 L 14.097656 14.082031 C 13.759115 13.967448 13.423177 13.83724 13.089844 13.691406 C 12.761719 13.540365 12.467448 13.358073 12.207031 13.144531 C 11.946615 12.925781 11.735677 12.66276 11.574219 12.355469 C 11.41276 12.042969 11.332031 11.667969 11.332031 11.230469 C 11.332031 10.865885 11.402344 10.519531 11.542969 10.191406 C 11.683594 9.8632812 11.89974 9.5716146 12.191406 9.3164062 C 12.488281 9.0559896 12.863281 8.8424479 13.316406 8.6757812 C 13.77474 8.5091146 14.31901 8.4101562 14.949219 8.3789062 L 15.191406 6.7851562 z M 14.707031 9.9804688 C 14.21224 10.032552 13.863281 10.154948 13.660156 10.347656 C 13.46224 10.535156 13.363281 10.77474 13.363281 11.066406 C 13.363281 11.300781 13.451823 11.498698 13.628906 11.660156 C 13.80599 11.821615 14.063802 11.967448 14.402344 12.097656 L 14.707031 9.9804688 z M 15.410156 14.527344 L 15.058594 16.925781 C 15.339844 16.894531 15.579427 16.842448 15.777344 16.769531 C 15.97526 16.696615 16.134115 16.608073 16.253906 16.503906 C 16.378906 16.394531 16.470052 16.27474 16.527344 16.144531 C 16.584635 16.014323 16.613281 15.873698 16.613281 15.722656 C 16.613281 15.425781 16.516927 15.186198 16.324219 15.003906 C 16.136719 14.821615 15.832031 14.66276 15.410156 14.527344 z "
   transform="matrix(2.5681536,0,0,2.5681536,-14.793032,724.63348)"
   id="path13" />
		</g>
	</g>
</svg>