<?xml version="1.0" encoding="UTF-8" standalone="no"?>
<!-- Generated by Microsoft Visio 11.0, SVG Export, v1.0 lego-compatible.svg Page-1 -->

<svg
   xmlns:v="http://schemas.microsoft.com/visio/2003/SVGExtensions/"
   xmlns:dc="http://purl.org/dc/elements/1.1/"
   xmlns:cc="http://creativecommons.org/ns#"
   xmlns:rdf="http://www.w3.org/1999/02/22-rdf-syntax-ns#"
   xmlns:svg="http://www.w3.org/2000/svg"
   xmlns="http://www.w3.org/2000/svg"
   xmlns:sodipodi="http://sodipodi.sourceforge.net/DTD/sodipodi-0.dtd"
   xmlns:inkscape="http://www.inkscape.org/namespaces/inkscape"
   width="30"
   height="30"
   viewBox="0 0 22.5 22.5"
   xml:space="preserve"
   class="st7"
   version="1.1"
   id="svg200"
   sodipodi:docname="lego-compatible.svg"
   style="font-size:12px;overflow:visible;color-interpolation-filters:sRGB;fill:none;fill-rule:evenodd;stroke-linecap:square;stroke-miterlimit:3"
   inkscape:version="0.92.3 (2405546, 2018-03-11)"><metadata
   id="metadata206"><rdf:RDF><cc:Work
       rdf:about=""><dc:format>image/svg+xml</dc:format><dc:type
         rdf:resource="http://purl.org/dc/dcmitype/StillImage" /><dc:title></dc:title></cc:Work></rdf:RDF></metadata><defs
   id="defs204" /><sodipodi:namedview
   pagecolor="#ffffff"
   bordercolor="#666666"
   borderopacity="1"
   objecttolerance="10"
   gridtolerance="10"
   guidetolerance="10"
   inkscape:pageopacity="0"
   inkscape:pageshadow="2"
   inkscape:window-width="1270"
   inkscape:window-height="871"
   id="namedview202"
   showgrid="false"
   units="px"
   inkscape:zoom="14.30303"
   inkscape:cx="14.129346"
   inkscape:cy="20.248911"
   inkscape:window-x="0"
   inkscape:window-y="0"
   inkscape:window-maximized="0"
   inkscape:current-layer="svg200" />
	<v:documentProperties
   v:langID="1033"
   v:viewMarkup="false">
		<v:userDefs>
			<v:ud
   v:nameU="msvNoAutoConnect"
   v:val="VT0(1):26" />
		</v:userDefs>
	</v:documentProperties>

	<style
   type="text/css"
   id="style2">
	<![CDATA[
		.st1 {fill:#404040;stroke:#404040;stroke-linecap:round;stroke-linejoin:round;stroke-width:1.2}
		.st2 {fill:none;stroke:#404040;stroke-linecap:round;stroke-linejoin:round;stroke-width:1.2}
		.st3 {fill:none;stroke:#404040;stroke-linecap:round;stroke-linejoin:round;stroke-width:3.12}
		.st4 {stroke:#404040;stroke-linecap:round;stroke-linejoin:round;stroke-width:1.2}
		.st5 {stroke:#404040;stroke-linecap:round;stroke-linejoin:round;stroke-width:0.24}
		.st6 {fill:#404040}
		.st7 {fill:none;fill-rule:evenodd;font-size:12;overflow:visible;stroke-linecap:square;stroke-miterlimit:3}
	]]>
	</style>

	<g
   v:mID="0"
   v:index="1"
   v:groupContext="foregroundPage"
   id="g198"
   transform="matrix(0.29022366,0,0,0.29022366,-77.544162,-103.30284)">
		<title
   id="title4">Page-1</title>
		<v:pageProperties
   v:drawingScale="1"
   v:pageScale="1"
   v:drawingUnits="19"
   v:shadowOffsetX="9"
   v:shadowOffsetY="-9" />
		<v:layer
   v:name="Connector"
   v:index="0" />
		<g
   id="shape3-1"
   v:mID="3"
   v:groupContext="shape"
   transform="translate(276.75,-377.172)">
			<title
   id="title6">Sheet.3</title>
			<path
   d="M 0,768.47 19.68,775.84 19.79,792 0,784.58 Z"
   class="st1"
   id="path8"
   inkscape:connector-curvature="0"
   style="fill:#404040;stroke:#404040;stroke-width:1.20000005;stroke-linecap:round;stroke-linejoin:round" />
		</g>
		<g
   id="shape4-3"
   v:mID="4"
   v:groupContext="shape"
   transform="translate(296.543,-377.191)">
			<title
   id="title11">Sheet.4</title>
			<path
   d="m 0,775.89 38.71,-14.51 v 16.05 L 0,792 Z"
   class="st2"
   id="path13"
   inkscape:connector-curvature="0"
   style="fill:none;stroke:#404040;stroke-width:1.20000005;stroke-linecap:round;stroke-linejoin:round" />
		</g>
		<g
   id="shape29-5"
   v:mID="29"
   v:groupContext="shape"
   transform="translate(270,-360.563)">
			<title
   id="title16">Sheet.29</title>
			<circle
   cx="36"
   cy="756"
   class="st3"
   id="ellipse18"
   r="36"
   style="fill:none;stroke:#404040;stroke-width:3.11999989;stroke-linecap:round;stroke-linejoin:round" />
		</g>
		<g
   id="shape23-7"
   v:mID="23"
   v:groupContext="shape"
   transform="translate(276.75,-393.245)">
			<title
   id="title21">Sheet.23</title>
			<path
   d="M 52.64,775.36 58.5,777.43 19.79,792 0,784.54"
   class="st4"
   id="path23"
   inkscape:connector-curvature="0"
   style="stroke:#404040;stroke-width:1.20000005;stroke-linecap:round;stroke-linejoin:round" />
		</g>
		<g
   id="shape19-10"
   v:mID="19"
   v:groupContext="shape"
   transform="rotate(-20.7256,-963.57497,-199.58257)">
			<title
   id="title26">Sheet.19</title>
			<path
   d="M 0,792 H 3.52"
   class="st4"
   id="path28"
   inkscape:connector-curvature="0"
   style="stroke:#404040;stroke-width:1.20000005;stroke-linecap:round;stroke-linejoin:round" />
		</g>
		<g
   id="shape32-13"
   v:mID="32"
   v:groupContext="shape"
   transform="rotate(-20.7256,-968.60074,-227.06377)">
			<title
   id="title31">Sheet.32</title>
			<path
   d="M 0,792 H 3.94"
   class="st4"
   id="path33"
   inkscape:connector-curvature="0"
   style="stroke:#404040;stroke-width:1.20000005;stroke-linecap:round;stroke-linejoin:round" />
		</g>
		<g
   id="shape36-16"
   v:mID="36"
   v:groupContext="shape"
   transform="rotate(-20.7256,-973.86557,-255.84906)">
			<title
   id="title36">Sheet.36</title>
			<path
   d="M 0,792 H 3.67"
   class="st4"
   id="path38"
   inkscape:connector-curvature="0"
   style="stroke:#404040;stroke-width:1.20000005;stroke-linecap:round;stroke-linejoin:round" />
		</g>
		<g
   id="shape37-19"
   v:mID="37"
   v:groupContext="shape"
   transform="rotate(-20.7256,-957.26422,-165.06654)">
			<title
   id="title41">Sheet.37</title>
			<path
   d="M 0,792 H 5.92"
   class="st4"
   id="path43"
   inkscape:connector-curvature="0"
   style="stroke:#404040;stroke-width:1.20000005;stroke-linecap:round;stroke-linejoin:round" />
		</g>
		<g
   id="shape38-22"
   v:mID="38"
   v:groupContext="shape"
   transform="rotate(162.452,175.4524,611.07821)">
			<title
   id="title46">Sheet.38</title>
			<path
   d="m 0,790.79 a 4.28853,1.97932 -162.45 0 0 6.55,0"
   class="st4"
   id="path48"
   inkscape:connector-curvature="0"
   style="stroke:#404040;stroke-width:1.20000005;stroke-linecap:round;stroke-linejoin:round" />
		</g>
		<g
   id="shape42-25"
   v:mID="42"
   v:groupContext="shape"
   transform="rotate(-139.188,70.525744,536.02496)">
			<title
   id="title51">Sheet.42</title>
			<path
   d="m 0,791.45 a 4.28853,1.97932 -40.81 0 0 3.01,0"
   class="st4"
   id="path53"
   inkscape:connector-curvature="0"
   style="stroke:#404040;stroke-width:1.20000005;stroke-linecap:round;stroke-linejoin:round" />
		</g>
		<g
   id="shape49-28"
   v:mID="49"
   v:groupContext="shape"
   transform="rotate(-76.5618,-97.545613,386.0338)">
			<title
   id="title56">Sheet.49</title>
			<path
   d="M 0,792 H 0.01"
   class="st5"
   id="path58"
   inkscape:connector-curvature="0"
   style="stroke:#404040;stroke-width:0.23999999;stroke-linecap:round;stroke-linejoin:round" />
		</g>
		<g
   id="shape50-31"
   v:mID="50"
   v:groupContext="shape"
   transform="rotate(179.96,160.05787,587.70594)">
			<title
   id="title61">Sheet.50</title>
			<path
   d="m 0,789.8 a 4.28853,1.97932 -179.96 1 0 8.53,0"
   class="st4"
   id="path63"
   inkscape:connector-curvature="0"
   style="stroke:#404040;stroke-width:1.20000005;stroke-linecap:round;stroke-linejoin:round" />
		</g>
		<g
   id="shape56-34"
   v:mID="56"
   v:groupContext="shape"
   transform="rotate(179.96,155.21876,589.46425)">
			<title
   id="title66">Sheet.56</title>
			<path
   d="m 0,789.8 a 4.28853,1.97932 -179.96 1 0 8.53,0"
   class="st4"
   id="path68"
   inkscape:connector-curvature="0"
   style="stroke:#404040;stroke-width:1.20000005;stroke-linecap:round;stroke-linejoin:round" />
		</g>
		<g
   id="shape61-37"
   v:mID="61"
   v:groupContext="shape"
   transform="rotate(161.678,181.83856,611.07026)">
			<title
   id="title71">Sheet.61</title>
			<path
   d="m 0,790.82 a 4.28853,1.97932 -161.68 0 0 6.4,0"
   class="st4"
   id="path73"
   inkscape:connector-curvature="0"
   style="stroke:#404040;stroke-width:1.20000005;stroke-linecap:round;stroke-linejoin:round" />
		</g>
		<g
   id="shape65-40"
   v:mID="65"
   v:groupContext="shape"
   transform="rotate(-140.639,77.571608,534.62622)">
			<title
   id="title76">Sheet.65</title>
			<path
   d="m 0,791.42 a 4.28853,1.97932 -39.36 0 0 3.16,0"
   class="st4"
   id="path78"
   inkscape:connector-curvature="0"
   style="stroke:#404040;stroke-width:1.20000005;stroke-linecap:round;stroke-linejoin:round" />
		</g>
		<g
   id="shape73-43"
   v:mID="73"
   v:groupContext="shape"
   transform="rotate(136.62,243.37635,649.91876)">
			<title
   id="title81">Sheet.73</title>
			<path
   d="m 0,791.49 a 4.28853,1.97932 -136.62 0 0 2.76,0"
   class="st4"
   id="path83"
   inkscape:connector-curvature="0"
   style="stroke:#404040;stroke-width:1.20000005;stroke-linecap:round;stroke-linejoin:round" />
		</g>
		<g
   id="shape79-46"
   v:mID="79"
   v:groupContext="shape"
   transform="rotate(179.949,159.97108,584.09131)">
			<title
   id="title86">Sheet.79</title>
			<path
   d="m 0,789.8 a 4.28853,1.97932 -179.95 1 0 8.52,0"
   class="st4"
   id="path88"
   inkscape:connector-curvature="0"
   style="stroke:#404040;stroke-width:1.20000005;stroke-linecap:round;stroke-linejoin:round" />
		</g>
		<g
   id="shape85-49"
   v:mID="85"
   v:groupContext="shape"
   transform="rotate(161.955,186.55242,609.61603)">
			<title
   id="title91">Sheet.85</title>
			<path
   d="m 0,790.81 a 4.28853,1.97932 -161.96 0 0 6.46,0"
   class="st4"
   id="path93"
   inkscape:connector-curvature="0"
   style="stroke:#404040;stroke-width:1.20000005;stroke-linecap:round;stroke-linejoin:round" />
		</g>
		<g
   id="shape89-52"
   v:mID="89"
   v:groupContext="shape"
   transform="rotate(-140.13,80.764161,530.233)">
			<title
   id="title96">Sheet.89</title>
			<path
   d="m 0,791.43 a 4.28853,1.97932 -39.87 0 0 3.11,0"
   class="st4"
   id="path98"
   inkscape:connector-curvature="0"
   style="stroke:#404040;stroke-width:1.20000005;stroke-linecap:round;stroke-linejoin:round" />
		</g>
		<g
   id="shape95-55"
   v:mID="95"
   v:groupContext="shape"
   transform="rotate(-163.771,135.61727,562.7563)">
			<title
   id="title101">Sheet.95</title>
			<path
   d="m 0,790.74 a 4.28853,1.97932 -16.23 0 0 6.79,0"
   class="st4"
   id="path103"
   inkscape:connector-curvature="0"
   style="stroke:#404040;stroke-width:1.20000005;stroke-linecap:round;stroke-linejoin:round" />
		</g>
		<g
   id="shape97-58"
   v:mID="97"
   v:groupContext="shape"
   transform="rotate(19.4721,1364.2345,1517.2296)">
			<title
   id="title106">Sheet.97</title>
			<path
   d="M 0,792 H 3.44"
   class="st4"
   id="path108"
   inkscape:connector-curvature="0"
   style="stroke:#404040;stroke-width:1.20000005;stroke-linecap:round;stroke-linejoin:round" />
		</g>
		<g
   id="shape6-61"
   v:mID="6"
   v:groupContext="shape"
   transform="rotate(179.96,150.3796,591.33256)">
			<title
   id="title111">Sheet.6</title>
			<path
   d="m 0,789.8 a 4.28853,1.97932 -179.96 1 0 8.53,0"
   class="st4"
   id="path113"
   inkscape:connector-curvature="0"
   style="stroke:#404040;stroke-width:1.20000005;stroke-linecap:round;stroke-linejoin:round" />
		</g>
		<g
   id="shape10-64"
   v:mID="10"
   v:groupContext="shape"
   transform="translate(311.425,-402.097)">
			<title
   id="title116">Sheet.10</title>
			<path
   d="m 8.58,787.6 v 2.42 a 4.29,1.9799985 0 0 1 -8.58,0 v -2.42 a 4.3034,1.98618 -180 0 0 8.55,0 z"
   class="st6"
   id="path118"
   inkscape:connector-curvature="0"
   style="fill:#404040" />
			<path
   d="m 8.58,787.6 v 2.42 a 4.29,1.9799985 0 0 1 -8.58,0 v -2.42 a 4.3034,1.98618 -180 0 0 8.55,0"
   class="st4"
   id="path120"
   inkscape:connector-curvature="0"
   style="stroke:#404040;stroke-width:1.20000005;stroke-linecap:round;stroke-linejoin:round" />
		</g>
		<g
   id="shape11-67"
   v:mID="11"
   v:groupContext="shape"
   transform="translate(320.992,-405.836)">
			<title
   id="title123">Sheet.11</title>
			<path
   d="M 8.55,787.6 A 4.28853,1.97932 0 0 1 8.4,787.95 4.28853,1.97932 -180 0 1 0.03,787.6 L 0,790.02 a 4.29,1.9799985 -180 1 0 8.58,0 v -2.42 z m -8.52,0 z"
   class="st6"
   id="path125"
   inkscape:connector-curvature="0"
   style="fill:#404040" />
			<path
   d="M 8.55,787.6 A 4.28853,1.97932 0 0 1 8.4,787.95 4.28853,1.97932 -180 0 1 0.03,787.6 L 0,790.02 a 4.29,1.9799985 -180 1 0 8.58,0 v -2.42 m -8.55,0 v 0"
   class="st4"
   id="path127"
   inkscape:connector-curvature="0"
   style="stroke:#404040;stroke-width:1.20000005;stroke-linecap:round;stroke-linejoin:round" />
		</g>
		<g
   id="shape7-70"
   v:mID="7"
   v:groupContext="shape"
   transform="translate(301.748,-398.578)">
			<title
   id="title130">Sheet.7</title>
			<path
   d="m 8.55,787.6 a 4.28853,1.97932 0 0 1 -8.52,0 L 0,790.02 a 4.29,1.9799985 -180 1 0 8.58,0 v -2.42 z m 0,0 z"
   class="st6"
   id="path132"
   inkscape:connector-curvature="0"
   style="fill:#404040" />
			<path
   d="m 8.55,787.6 a 4.28853,1.97932 0 0 1 -8.52,0 L 0,790.02 a 4.29,1.9799985 -180 1 0 8.58,0 v -2.42 m -0.03,0 v 0"
   class="st4"
   id="path134"
   inkscape:connector-curvature="0"
   style="stroke:#404040;stroke-width:1.20000005;stroke-linecap:round;stroke-linejoin:round" />
		</g>
		<g
   id="shape12-73"
   v:mID="12"
   v:groupContext="shape"
   transform="translate(292.071,-394.84)">
			<title
   id="title137">Sheet.12</title>
			<path
   d="m 8.55,787.6 a 4.28853,1.97932 0 0 1 -8.52,0 L 0,790.02 a 4.29,1.9799985 -180 0 0 8.58,0 v -2.42 z m 0,0 z"
   class="st6"
   id="path139"
   inkscape:connector-curvature="0"
   style="fill:#404040" />
			<path
   d="m 8.55,787.6 a 4.28853,1.97932 0 0 1 -8.52,0 L 0,790.02 a 4.29,1.9799985 -180 0 0 8.58,0 v -2.42 m -0.03,0 v 0"
   class="st4"
   id="path141"
   inkscape:connector-curvature="0"
   style="stroke:#404040;stroke-width:1.20000005;stroke-linecap:round;stroke-linejoin:round" />
		</g>
		<g
   id="shape1-76"
   v:mID="1"
   v:groupContext="shape"
   transform="translate(282.285,-398.798)">
			<title
   id="title144">Sheet.1</title>
			<path
   d="m 8.58,787.6 v 2.42 a 4.29,1.9799985 0 0 1 -8.58,0 V 788 787.6 a 23.5401,10.8647 0 0 0 0.17,0.34 4.28853,1.97932 -180 0 0 8.38,-0.34 z m -0.03,0 z"
   class="st6"
   id="path146"
   inkscape:connector-curvature="0"
   style="fill:#404040" />
			<path
   d="m 8.58,787.6 v 2.42 a 4.29,1.9799985 0 0 1 -8.58,0 V 788 787.6 a 23.5401,10.8647 0 0 0 0.17,0.34 4.28853,1.97932 -180 0 0 8.38,-0.34"
   class="st4"
   id="path148"
   inkscape:connector-curvature="0"
   style="stroke:#404040;stroke-width:1.20000005;stroke-linecap:round;stroke-linejoin:round" />
			<path
   d=""
   class="st4"
   id="path150"
   inkscape:connector-curvature="0"
   style="stroke:#404040;stroke-width:1.20000005;stroke-linecap:round;stroke-linejoin:round" />
			<path
   d="m 8.55,787.6 v 0"
   class="st4"
   id="path152"
   inkscape:connector-curvature="0"
   style="stroke:#404040;stroke-width:1.20000005;stroke-linecap:round;stroke-linejoin:round" />
			<path
   d=""
   class="st4"
   id="path154"
   inkscape:connector-curvature="0"
   style="stroke:#404040;stroke-width:1.20000005;stroke-linecap:round;stroke-linejoin:round" />
			<path
   d="M 0.17,787.94 0,788"
   class="st4"
   id="path156"
   inkscape:connector-curvature="0"
   style="stroke:#404040;stroke-width:1.20000005;stroke-linecap:round;stroke-linejoin:round" />
		</g>
		<g
   id="shape2-83"
   v:mID="2"
   v:groupContext="shape"
   transform="translate(291.852,-402.317)">
			<title
   id="title159">Sheet.2</title>
			<path
   d="M 8.55,787.6 A 4.28853,1.97932 0 0 1 0.12,787.85 4.28853,1.97932 -180 0 1 0.03,787.6 L 0,787.9 v 2.12 a 4.29,1.9799985 -180 0 0 8.58,0 v -2.42 z m 0,0 z"
   class="st6"
   id="path161"
   inkscape:connector-curvature="0"
   style="fill:#404040" />
			<path
   d="M 8.55,787.6 A 4.28853,1.97932 0 0 1 0.12,787.85 4.28853,1.97932 -180 0 1 0.03,787.6 L 0,787.9 v 2.12 a 4.29,1.9799985 -180 0 0 8.58,0 v -2.42"
   class="st4"
   id="path163"
   inkscape:connector-curvature="0"
   style="stroke:#404040;stroke-width:1.20000005;stroke-linecap:round;stroke-linejoin:round" />
			<path
   d=""
   class="st4"
   id="path165"
   inkscape:connector-curvature="0"
   style="stroke:#404040;stroke-width:1.20000005;stroke-linecap:round;stroke-linejoin:round" />
			<path
   d="m 8.55,787.6 v 0"
   class="st4"
   id="path167"
   inkscape:connector-curvature="0"
   style="stroke:#404040;stroke-width:1.20000005;stroke-linecap:round;stroke-linejoin:round" />
			<path
   d=""
   class="st4"
   id="path169"
   inkscape:connector-curvature="0"
   style="stroke:#404040;stroke-width:1.20000005;stroke-linecap:round;stroke-linejoin:round" />
			<path
   d="M 0.12,787.85 0,787.9"
   class="st4"
   id="path171"
   inkscape:connector-curvature="0"
   style="stroke:#404040;stroke-width:1.20000005;stroke-linecap:round;stroke-linejoin:round" />
		</g>
		<g
   id="shape5-90"
   v:mID="5"
   v:groupContext="shape"
   transform="translate(301.638,-406.056)">
			<title
   id="title174">Sheet.5</title>
			<path
   d="m 8.58,787.6 v 2.42 a 4.29,1.9799985 0 1 1 -8.58,0 v -2.09 -0.33 a 26.5821,12.2687 -180 0 1 0.14,0.28 4.28853,1.97932 -180 0 0 8.41,-0.28 z m -0.03,0 z"
   class="st6"
   id="path176"
   inkscape:connector-curvature="0"
   style="fill:#404040" />
			<path
   d="m 8.58,787.6 v 2.42 a 4.29,1.9799985 0 1 1 -8.58,0 v -2.09 -0.33 a 26.5821,12.2687 -180 0 1 0.14,0.28 4.28853,1.97932 -180 0 0 8.41,-0.28"
   class="st4"
   id="path178"
   inkscape:connector-curvature="0"
   style="stroke:#404040;stroke-width:1.20000005;stroke-linecap:round;stroke-linejoin:round" />
			<path
   d=""
   class="st4"
   id="path180"
   inkscape:connector-curvature="0"
   style="stroke:#404040;stroke-width:1.20000005;stroke-linecap:round;stroke-linejoin:round" />
			<path
   d="m 8.55,787.6 v 0"
   class="st4"
   id="path182"
   inkscape:connector-curvature="0"
   style="stroke:#404040;stroke-width:1.20000005;stroke-linecap:round;stroke-linejoin:round" />
			<path
   d=""
   class="st4"
   id="path184"
   inkscape:connector-curvature="0"
   style="stroke:#404040;stroke-width:1.20000005;stroke-linecap:round;stroke-linejoin:round" />
			<path
   d="M 0.14,787.88 0,787.93"
   class="st4"
   id="path186"
   inkscape:connector-curvature="0"
   style="stroke:#404040;stroke-width:1.20000005;stroke-linecap:round;stroke-linejoin:round" />
		</g>
		<g
   id="shape8-97"
   v:mID="8"
   v:groupContext="shape"
   transform="translate(311.205,-409.355)">
			<title
   id="title189">Sheet.8</title>
			<path
   d="M 8.37,788 A 4.28853,1.97932 -180 0 1 0.03,787.6 L 0,790.02 a 4.29,1.9799985 -180 1 0 8.58,0 v -1.95 -0.47 H 8.55 A 4.289,1.97954 0 0 1 8.37,788 Z"
   class="st6"
   id="path191"
   inkscape:connector-curvature="0"
   style="fill:#404040" />
			<path
   d="M 8.37,788 A 4.28853,1.97932 -180 0 1 0.03,787.6 L 0,790.02 a 4.29,1.9799985 -180 1 0 8.58,0 v -1.95 -0.47 H 8.55 A 4.289,1.97954 0 0 1 8.37,788"
   class="st4"
   id="path193"
   inkscape:connector-curvature="0"
   style="stroke:#404040;stroke-width:1.20000005;stroke-linecap:round;stroke-linejoin:round" />
			<path
   d="m 8.37,788 0.21,0.07"
   class="st4"
   id="path195"
   inkscape:connector-curvature="0"
   style="stroke:#404040;stroke-width:1.20000005;stroke-linecap:round;stroke-linejoin:round" />
		</g>
	</g>
</svg>